<svg width="320" height="425" viewBox="0 0 320 425" fill="none" xmlns="http://www.w3.org/2000/svg">
<ellipse cx="173.5" cy="365" rx="375.5" ry="250" fill="#4EC259"/>
<path d="M61.21 270.428L18.7487 312.884C16.6638 314.968 16.6638 318.348 18.7487 320.433L30.5694 332.252C32.6543 334.337 36.0346 334.337 38.1195 332.252L80.5808 289.796C82.6657 287.712 82.6657 284.332 80.5808 282.247L68.7601 270.428C66.6752 268.343 63.2949 268.343 61.21 270.428Z" fill="#47AA51"/>
<path d="M4.27058 327.362L0 331.632L19.3708 351L23.6414 346.73L4.27058 327.362Z" fill="#47AA51"/>
<path d="M19.4007 321.083L18.4371 325.453L10.4014 333.488L17.5105 340.6L25.5463 332.566L29.9214 331.602L19.4007 321.083Z" fill="#1C9E07"/>
<path d="M39.9756 291.66L61.2061 270.428C62.208 269.427 63.566 268.865 64.9819 268.865C66.3979 268.865 67.7559 269.427 68.7578 270.428L80.5786 282.247C81.0746 282.743 81.4681 283.331 81.7365 283.979C82.0049 284.627 82.1431 285.321 82.1431 286.022C82.1431 286.723 82.0049 287.418 81.7365 288.066C81.4681 288.713 81.0746 289.302 80.5786 289.798L59.3481 311.025L39.9756 291.66Z" fill="#1C9E07"/>
<path d="M18.751 320.434L30.5719 332.253C31.5738 333.253 32.9318 333.815 34.3477 333.815C35.7637 333.815 37.1217 333.253 38.1236 332.253L80.58 289.798C81.0765 289.302 81.4704 288.714 81.7392 288.066C82.008 287.418 82.1464 286.724 82.1464 286.022C82.1464 285.321 82.008 284.626 81.7392 283.979C81.4704 283.331 81.0765 282.742 80.58 282.247L75.6101 277.255L94.6184 258.226C94.8629 257.981 95.0003 257.65 95.0003 257.304C95.0003 256.958 94.8629 256.626 94.6184 256.382C94.3738 256.137 94.0422 256 93.6963 256C93.3505 256 93.0188 256.137 92.7743 256.382L73.7659 275.425L68.7637 270.432C68.2686 269.935 67.6801 269.541 67.0322 269.272C66.3842 269.003 65.6895 268.864 64.9879 268.864C64.2863 268.864 63.5915 269.003 62.9436 269.272C62.2956 269.541 61.7072 269.935 61.212 270.432L54.6193 277.024L52.7752 278.868L18.751 312.883C17.7505 313.885 17.1885 315.243 17.1885 316.658C17.1885 318.074 17.7505 319.432 18.751 320.434ZM20.5952 314.713L22.8588 312.45L30.6964 320.286L32.5405 318.442L24.703 310.606L27.6121 307.702L30.6226 310.716L32.4667 308.873L29.4516 305.858L31.9135 303.396L39.751 311.233L41.5951 309.389L33.7576 301.552L36.6529 298.657L39.6634 301.668L41.5076 299.824L38.4924 296.809L40.9681 294.338L48.8057 302.175L50.6498 300.331L42.8123 292.494L45.6983 289.613L48.7135 292.623L50.5576 290.779L47.5425 287.765L50.4285 284.884L58.266 292.72L60.1102 290.876L52.2726 283.04L54.7484 280.569L57.6298 283.676L59.474 281.832L56.4588 278.817L58.9576 276.323L66.7951 284.16L68.6393 282.316L60.8017 274.48L63.07 272.212C63.5881 271.698 64.2882 271.41 65.0179 271.41C65.7475 271.41 66.4476 271.698 66.9657 272.212L78.7866 284.031C79.3004 284.549 79.5887 285.249 79.5887 285.978C79.5887 286.708 79.3004 287.408 78.7866 287.926L36.3256 330.377C35.8075 330.891 35.1074 331.179 34.3777 331.179C33.648 331.179 32.9479 330.891 32.4298 330.377L20.5813 318.608C20.0675 318.09 19.7792 317.39 19.7792 316.661C19.7792 315.931 20.0675 315.231 20.5813 314.713H20.5952Z" fill="white"/>
<path d="M329.104 395.184L310.846 413.33L290.676 393.283L308.934 375.132C311.609 372.474 315.236 370.98 319.019 370.98C322.802 370.98 326.43 372.474 329.104 375.132C331.779 377.791 333.282 381.396 333.282 385.156C333.282 388.915 331.779 392.521 329.104 395.179V395.184Z" fill="#1C9E07"/>
<path d="M310.845 413.33L292.587 431.473C291.262 432.789 289.69 433.833 287.96 434.546C286.229 435.258 284.375 435.625 282.502 435.625C280.629 435.625 278.774 435.258 277.044 434.546C275.313 433.833 273.741 432.789 272.417 431.473C271.092 430.156 270.042 428.594 269.325 426.874C268.608 425.154 268.239 423.311 268.239 421.449C268.239 419.588 268.608 417.744 269.325 416.024C270.042 414.305 271.092 412.742 272.417 411.426L290.671 393.283L310.845 413.33Z" fill="#47AA51"/>
<path d="M290.676 393.287L272.422 411.43C271.097 412.746 270.047 414.309 269.33 416.029C268.613 417.748 268.244 419.592 268.244 421.453C268.244 423.315 268.613 425.158 269.33 426.878C270.047 428.598 271.097 430.161 272.422 431.477C273.746 432.793 275.318 433.837 277.049 434.55C278.779 435.262 280.634 435.629 282.507 435.629C284.38 435.629 286.234 435.262 287.965 434.55C289.695 433.837 291.267 432.793 292.592 431.477L310.85 413.334L290.676 393.287ZM291.138 430.04C288.834 432.247 285.751 433.466 282.551 433.437C279.352 433.408 276.292 432.131 274.03 429.883C271.767 427.634 270.483 424.593 270.454 421.413C270.424 418.233 271.651 415.169 273.871 412.879L290.68 396.173L307.946 413.33L291.138 430.04Z" fill="white"/>
<path d="M334.839 433.461C332.339 435.115 329.339 435.858 326.35 435.563C323.36 435.268 320.566 433.953 318.442 431.841C316.318 429.73 314.995 426.953 314.698 423.982C314.4 421.011 315.148 418.029 316.812 415.544L334.839 433.461Z" fill="#47AA51"/>
<path d="M338.479 429.865L338.437 429.936C337.5 431.306 336.311 432.488 334.932 433.419L334.861 433.461L316.813 415.535L316.855 415.468C317.791 414.098 318.98 412.916 320.359 411.985L320.431 411.939L338.479 429.865Z" fill="#1C9E07"/>
<path d="M336.827 413.569C335.622 412.367 334.19 411.414 332.613 410.765C331.035 410.115 329.345 409.782 327.637 409.785V411.823C329.624 411.824 331.574 412.362 333.277 413.379C334.98 414.397 336.372 415.856 337.304 417.6C338.236 419.345 338.674 421.308 338.569 423.28C338.464 425.252 337.822 427.159 336.71 428.796C335.925 429.947 334.927 430.939 333.768 431.72C331.661 433.131 329.125 433.77 326.596 433.527C324.067 433.284 321.701 432.175 319.905 430.389C318.108 428.602 316.992 426.251 316.749 423.737C316.505 421.223 317.149 418.703 318.569 416.609C318.961 416.032 319.407 415.494 319.901 415.001C321.959 412.966 324.743 411.82 327.646 411.814V409.776C325.938 409.775 324.247 410.109 322.67 410.758C321.092 411.408 319.659 412.36 318.452 413.56C317.861 414.143 317.331 414.782 316.867 415.469C315.175 417.955 314.406 420.949 314.694 423.937C314.981 426.925 316.306 429.72 318.442 431.842C320.577 433.965 323.389 435.282 326.396 435.567C329.402 435.853 332.414 435.089 334.915 433.407C336.296 432.479 337.485 431.298 338.42 429.928C340.106 427.441 340.868 424.449 340.578 421.464C340.287 418.48 338.961 415.688 336.827 413.569Z" fill="white"/>
<g clip-path="url(#clip0_636_359)">
<path d="M332.529 199.425C331.714 201.525 330.728 203.555 329.583 205.494C329.143 206.222 328.702 207.012 328.165 207.837C324.427 213.717 317.901 222.018 306.76 231.727L291.498 245L276.244 231.714C266.072 222.856 259.753 215.172 255.891 209.429C255.336 208.6 254.83 207.819 254.372 207.078C252.833 204.656 251.527 202.093 250.47 199.425C248.488 194.088 248.526 188.209 250.577 182.899C252.627 177.588 256.549 173.214 261.6 170.604C266.652 167.993 272.483 167.326 277.992 168.73C283.5 170.133 288.305 173.509 291.498 178.22C294.688 173.505 299.493 170.124 305.004 168.718C310.515 167.311 316.349 167.977 321.403 170.589C326.458 173.201 330.381 177.577 332.431 182.891C334.481 188.205 334.516 194.087 332.529 199.425Z" fill="#47AA51"/>
<path d="M318.861 169.469C313.98 167.651 308.631 167.526 303.671 169.112C298.71 170.699 294.424 173.906 291.498 178.221C288.305 173.51 283.5 170.133 277.992 168.73C272.483 167.326 266.652 167.993 261.6 170.604C256.549 173.214 252.627 177.588 250.577 182.899C248.526 188.209 248.488 194.088 250.47 199.425C251.527 202.094 252.835 204.657 254.376 207.078C254.817 207.819 255.341 208.6 255.896 209.429C259.757 215.163 266.076 222.856 276.248 231.714L291.498 245L306.756 231.714C317.901 222.009 324.422 213.703 328.165 207.823C328.702 206.998 329.143 206.209 329.583 205.494C330.729 203.56 331.714 201.534 332.529 199.438C333.598 196.571 334.092 193.522 333.983 190.464C333.874 187.405 333.165 184.399 331.895 181.616C330.626 178.832 328.821 176.327 326.585 174.243C324.348 172.159 321.723 170.536 318.861 169.469ZM305.21 229.941L291.498 241.89L277.781 229.941C269.855 223.05 263.465 216.151 258.74 209.429H293.206L297.253 193.845L302.713 227.81L309.393 200.483L312.603 216.363L315.932 207.788L325.347 207.819C321.851 213.073 315.655 220.849 305.214 229.941H305.21ZM330.31 198.622C329.539 200.595 328.609 202.502 327.531 204.325C327.289 204.766 327.055 205.128 326.835 205.494L314.329 205.459L313.299 208.106L309.583 189.751L303.167 216.015L297.786 182.424L291.396 207.078H257.151C256.878 206.637 256.618 206.244 256.371 205.847C254.911 203.553 253.67 201.127 252.663 198.6C250.878 193.801 250.91 188.514 252.753 183.737C254.596 178.961 258.123 175.026 262.666 172.678C267.209 170.33 272.454 169.731 277.408 170.995C282.362 172.258 286.682 175.297 289.551 179.535L291.498 182.407L293.439 179.535C296.307 175.292 300.627 172.249 305.584 170.983C310.54 169.716 315.788 170.314 320.333 172.663C324.879 175.012 328.407 178.949 330.25 183.729C332.092 188.509 332.122 193.8 330.332 198.6L330.31 198.622Z" fill="white"/>
</g>
<defs>
<clipPath id="clip0_636_359">
<rect width="85" height="77" fill="white" transform="translate(249 168)"/>
</clipPath>
</defs>
</svg>
