<svg width="816" height="748" viewBox="0 0 816 748" fill="none" xmlns="http://www.w3.org/2000/svg">
<path d="M816 0V748H0C11.4326 209.511 548.764 24.9631 816 0Z" fill="#4EC259"/>
<path d="M753.359 725.882C772.843 735.915 797.729 744.868 811.798 730.799C825.868 716.729 816.915 691.844 806.876 672.366L802.089 681.176C802.089 681.176 810.757 699.496 795.62 714.627C780.483 729.757 762.163 721.095 762.163 721.095L753.359 725.882Z" fill="#47AA51"/>
<path d="M813.351 732.345C833.45 712.246 810.557 673.427 799.553 654.771C793.712 644.861 781.777 627.971 767.487 626.153C761.057 625.351 755.009 627.705 749.524 633.197L752.616 636.296C757.144 631.768 761.84 629.827 766.925 630.474C779.823 632.111 791.396 649.551 795.775 656.996C805.401 673.317 827.945 711.547 810.246 729.246C792.547 746.945 754.31 724.407 737.99 714.782C730.57 710.402 713.13 698.83 711.468 685.931C710.821 680.847 712.716 676.163 717.29 671.622L714.191 668.523C708.705 674.009 706.351 680.051 707.153 686.487C707.936 692.626 712.684 704.917 735.771 718.553C754.427 729.557 793.246 752.45 813.351 732.345Z" fill="white"/>
<path d="M745.865 631L734.868 641.997C733.671 643.208 733 644.842 733 646.545C733 648.247 733.671 649.881 734.868 651.092C736.079 652.289 737.713 652.96 739.416 652.96C741.118 652.96 742.752 652.289 743.963 651.092L754.96 640.095L745.865 631Z" fill="#47AA51"/>
<path d="M711.202 665.522L722.199 654.525C723.41 653.328 725.044 652.657 726.747 652.657C728.449 652.657 730.083 653.328 731.294 654.525C732.491 655.736 733.162 657.37 733.162 659.073C733.162 660.775 732.491 662.409 731.294 663.62L720.297 674.617L711.202 665.522Z" fill="#47AA51"/>
<path d="M855.644 802.188C857.659 800.178 859.257 797.79 860.348 795.16C861.439 792.531 862 789.713 862 786.867C862 784.021 861.439 781.202 860.348 778.573C859.257 775.944 857.659 773.556 855.644 771.545L813.345 729.253L810.246 732.351L852.546 774.644C854.202 776.238 855.524 778.146 856.434 780.256C857.344 782.367 857.825 784.638 857.847 786.936C857.869 789.235 857.433 791.515 856.564 793.642C855.695 795.77 854.41 797.704 852.785 799.329C851.16 800.955 849.227 802.24 847.099 803.11C844.972 803.979 842.692 804.416 840.394 804.394C838.095 804.373 835.824 803.893 833.713 802.983C831.602 802.073 829.694 800.752 828.1 799.096L796.966 767.962C792.901 763.897 787.389 761.614 781.641 761.614C775.893 761.614 770.381 763.897 766.317 767.962C762.252 772.026 759.969 777.538 759.969 783.286C759.969 789.034 762.252 794.547 766.317 798.611L803.661 835.955L806.759 832.857L769.409 795.519C766.165 792.276 764.343 787.878 764.342 783.292C764.342 778.706 766.163 774.307 769.405 771.064C772.648 767.82 777.046 765.998 781.632 765.997C786.219 765.996 790.617 767.818 793.861 771.06L824.995 802.195C829.063 806.252 834.575 808.53 840.321 808.529C846.067 808.528 851.577 806.247 855.644 802.188Z" fill="white"/>
<g clip-path="url(#clip0_1_113)">
<path d="M728.079 138.219C727.014 140.974 725.727 143.637 724.232 146.181C723.657 147.136 723.082 148.171 722.38 149.253C717.498 156.966 708.976 167.855 694.427 180.59L674.497 198L654.577 180.573C641.294 168.954 633.042 158.875 627.999 151.342C627.274 150.254 626.613 149.23 626.015 148.258C624.005 145.081 622.299 141.72 620.92 138.219C618.331 131.22 618.381 123.508 621.059 116.543C623.737 109.577 628.858 103.84 635.454 100.415C642.051 96.9908 649.666 96.1163 656.859 97.9572C664.053 99.7981 670.328 104.227 674.497 110.406C678.663 104.221 684.938 99.786 692.135 97.9413C699.331 96.0966 706.95 96.9698 713.55 100.396C720.15 103.822 725.273 109.562 727.951 116.532C730.628 123.502 730.673 131.218 728.079 138.219Z" fill="#47AA51"/>
<path d="M710.23 98.9266C703.856 96.5426 696.871 96.378 690.393 98.4591C683.916 100.54 678.318 104.747 674.497 110.406C670.328 104.227 664.053 99.798 656.859 97.9571C649.666 96.1162 642.051 96.9906 635.454 100.415C628.858 103.84 623.737 109.577 621.059 116.542C618.381 123.508 618.331 131.219 620.92 138.219C622.299 141.721 624.007 145.082 626.021 148.258C626.596 149.23 627.28 150.254 628.005 151.342C633.048 158.864 641.3 168.954 654.583 180.573L674.497 198L694.422 180.573C708.976 167.843 717.492 156.948 722.38 149.236C723.082 148.154 723.657 147.118 724.232 146.181C725.728 143.643 727.015 140.986 728.079 138.237C729.474 134.476 730.119 130.476 729.977 126.465C729.835 122.454 728.909 118.51 727.251 114.859C725.594 111.208 723.237 107.922 720.316 105.188C717.396 102.455 713.968 100.327 710.23 98.9266ZM692.403 178.247L674.497 193.921L656.584 178.247C646.233 169.209 637.89 160.16 631.719 151.342H676.728L682.012 130.9L689.143 175.452L697.866 139.608L702.058 160.437L706.406 149.189L718.7 149.23C714.134 156.121 706.043 166.322 692.409 178.247H692.403ZM725.181 137.166C724.174 139.754 722.96 142.256 721.552 144.647C721.236 145.226 720.931 145.7 720.644 146.181L704.312 146.134L702.967 149.606L698.113 125.531L689.735 159.98L682.708 115.92L674.364 148.258H629.643C629.287 147.679 628.948 147.164 628.626 146.644C626.719 143.635 625.098 140.452 623.784 137.137C621.452 130.843 621.494 123.907 623.901 117.642C626.308 111.377 630.913 106.216 636.846 103.136C642.779 100.056 649.628 99.2707 656.097 100.928C662.567 102.585 668.208 106.571 671.955 112.13L674.497 115.897L677.032 112.13C680.777 106.564 686.419 102.573 692.891 100.912C699.364 99.2509 706.217 100.035 712.153 103.117C718.089 106.198 722.696 111.362 725.103 117.632C727.509 123.901 727.547 130.841 725.209 137.137L725.181 137.166Z" fill="white"/>
</g>
<g clip-path="url(#clip1_1_113)">
<path d="M187.079 708.219C186.014 710.974 184.727 713.637 183.232 716.181C182.657 717.136 182.082 718.171 181.38 719.253C176.498 726.966 167.976 737.855 153.427 750.59L133.497 768L113.577 750.573C100.294 738.954 92.0419 728.875 86.9988 721.342C86.2743 720.254 85.613 719.23 85.0149 718.258C83.0053 715.081 81.2993 711.72 79.9201 708.219C77.3313 701.22 77.3806 693.508 80.0586 686.543C82.7367 679.577 87.858 673.84 94.4545 670.415C101.051 666.991 108.666 666.116 115.859 667.957C123.053 669.798 129.328 674.227 133.497 680.406C137.663 674.221 143.938 669.786 151.135 667.941C158.331 666.097 165.95 666.97 172.55 670.396C179.15 673.822 184.273 679.562 186.951 686.532C189.628 693.502 189.673 701.218 187.079 708.219Z" fill="#47AA51"/>
<path d="M169.23 668.927C162.856 666.543 155.871 666.378 149.393 668.459C142.916 670.54 137.318 674.747 133.497 680.406C129.328 674.227 123.053 669.798 115.859 667.957C108.666 666.116 101.051 666.991 94.4545 670.415C87.858 673.84 82.7367 679.577 80.0586 686.542C77.3806 693.508 77.3313 701.219 79.9201 708.219C81.2995 711.721 83.0074 715.082 85.0207 718.258C85.5957 719.23 86.28 720.254 87.0046 721.342C92.0477 728.864 100.3 738.954 113.583 750.573L133.497 768L153.422 750.573C167.976 737.843 176.492 726.948 181.38 719.236C182.082 718.154 182.657 717.118 183.232 716.181C184.728 713.643 186.015 710.986 187.079 708.237C188.474 704.476 189.119 700.476 188.977 696.465C188.835 692.454 187.909 688.51 186.251 684.859C184.594 681.208 182.237 677.922 179.316 675.188C176.396 672.455 172.968 670.327 169.23 668.927ZM151.403 748.247L133.497 763.921L115.584 748.247C105.233 739.209 96.8895 730.16 90.7193 721.342H135.728L141.012 700.9L148.143 745.452L156.866 709.608L161.058 730.437L165.406 719.189L177.7 719.23C173.134 726.121 165.043 736.322 151.409 748.247H151.403ZM184.181 707.166C183.174 709.754 181.96 712.256 180.552 714.647C180.236 715.226 179.931 715.7 179.644 716.181L163.312 716.134L161.967 719.606L157.113 695.531L148.735 729.98L141.708 685.92L133.364 718.258H88.6434C88.2869 717.679 87.9476 717.164 87.6256 716.644C85.7188 713.635 84.0977 710.452 82.7838 707.137C80.4523 700.843 80.494 693.907 82.901 687.642C85.308 681.377 89.9134 676.216 95.8462 673.136C101.779 670.056 108.628 669.271 115.097 670.928C121.567 672.585 127.208 676.571 130.955 682.13L133.497 685.897L136.032 682.13C139.777 676.564 145.419 672.573 151.891 670.912C158.364 669.251 165.217 670.035 171.153 673.117C177.089 676.198 181.696 681.362 184.103 687.632C186.509 693.901 186.547 700.841 184.209 707.137L184.181 707.166Z" fill="white"/>
</g>
<g clip-path="url(#clip2_1_113)">
<path d="M570.079 325.219C569.014 327.974 567.727 330.637 566.232 333.181C565.657 334.136 565.082 335.171 564.38 336.253C559.498 343.966 550.976 354.855 536.427 367.59L516.497 385L496.577 367.573C483.294 355.954 475.042 345.875 469.999 338.342C469.274 337.254 468.613 336.23 468.015 335.258C466.005 332.081 464.299 328.72 462.92 325.219C460.331 318.22 460.381 310.508 463.059 303.543C465.737 296.577 470.858 290.84 477.454 287.415C484.051 283.991 491.666 283.116 498.859 284.957C506.053 286.798 512.328 291.227 516.497 297.406C520.663 291.221 526.938 286.786 534.135 284.941C541.331 283.097 548.95 283.97 555.55 287.396C562.15 290.822 567.273 296.562 569.951 303.532C572.628 310.502 572.673 318.218 570.079 325.219Z" fill="#47AA51"/>
<path d="M552.23 285.927C545.856 283.543 538.871 283.378 532.393 285.459C525.916 287.54 520.318 291.747 516.497 297.406C512.328 291.227 506.053 286.798 498.859 284.957C491.666 283.116 484.051 283.991 477.454 287.415C470.858 290.84 465.737 296.577 463.059 303.542C460.381 310.508 460.331 318.219 462.92 325.219C464.299 328.721 466.007 332.082 468.021 335.258C468.596 336.23 469.28 337.254 470.005 338.342C475.048 345.864 483.3 355.954 496.583 367.573L516.497 385L536.422 367.573C550.976 354.843 559.492 343.948 564.38 336.236C565.082 335.154 565.657 334.118 566.232 333.181C567.728 330.643 569.015 327.986 570.079 325.237C571.474 321.476 572.119 317.476 571.977 313.465C571.835 309.454 570.909 305.51 569.251 301.859C567.594 298.208 565.237 294.922 562.316 292.188C559.396 289.455 555.968 287.327 552.23 285.927ZM534.403 365.247L516.497 380.921L498.584 365.247C488.233 356.209 479.89 347.16 473.719 338.342H518.728L524.012 317.9L531.143 362.452L539.866 326.608L544.058 347.437L548.406 336.189L560.7 336.23C556.134 343.121 548.043 353.322 534.409 365.247H534.403ZM567.181 324.166C566.174 326.754 564.96 329.256 563.552 331.647C563.236 332.226 562.931 332.7 562.644 333.181L546.312 333.134L544.967 336.606L540.113 312.531L531.735 346.98L524.708 302.92L516.364 335.258H471.643C471.287 334.679 470.948 334.164 470.626 333.644C468.719 330.635 467.098 327.452 465.784 324.137C463.452 317.843 463.494 310.907 465.901 304.642C468.308 298.377 472.913 293.216 478.846 290.136C484.779 287.056 491.628 286.271 498.097 287.928C504.567 289.585 510.208 293.571 513.955 299.13L516.497 302.897L519.032 299.13C522.777 293.564 528.419 289.573 534.891 287.912C541.364 286.251 548.217 287.035 554.153 290.117C560.089 293.198 564.696 298.362 567.103 304.632C569.509 310.901 569.547 317.841 567.209 324.137L567.181 324.166Z" fill="white"/>
</g>
<path d="M690.104 553.183L671.846 571.33L651.676 551.283L669.934 533.132C672.609 530.474 676.236 528.98 680.019 528.98C683.802 528.98 687.43 530.474 690.104 533.132C692.779 535.791 694.282 539.396 694.282 543.156C694.282 546.915 692.779 550.521 690.104 553.179V553.183Z" fill="#1C9E07"/>
<path d="M671.845 571.33L653.587 589.473C652.262 590.789 650.69 591.833 648.96 592.546C647.229 593.258 645.375 593.625 643.502 593.625C641.629 593.625 639.774 593.258 638.044 592.546C636.313 591.833 634.741 590.789 633.417 589.473C632.092 588.156 631.042 586.594 630.325 584.874C629.608 583.154 629.239 581.311 629.239 579.449C629.239 577.588 629.608 575.744 630.325 574.024C631.042 572.305 632.092 570.742 633.417 569.426L651.671 551.283L671.845 571.33Z" fill="#47AA51"/>
<path d="M651.676 551.287L633.422 569.43C632.097 570.746 631.047 572.309 630.33 574.029C629.613 575.748 629.244 577.592 629.244 579.453C629.244 581.315 629.613 583.158 630.33 584.878C631.047 586.598 632.097 588.161 633.422 589.477C634.746 590.793 636.318 591.837 638.049 592.55C639.779 593.262 641.634 593.629 643.507 593.629C645.38 593.629 647.234 593.262 648.965 592.55C650.695 591.837 652.267 590.793 653.592 589.477L671.85 571.334L651.676 551.287ZM652.138 588.04C649.834 590.247 646.751 591.466 643.551 591.437C640.352 591.408 637.292 590.131 635.03 587.883C632.767 585.634 631.483 582.593 631.454 579.413C631.424 576.233 632.651 573.169 634.871 570.879L651.68 554.173L668.946 571.33L652.138 588.04Z" fill="white"/>
<path d="M695.839 591.461C693.339 593.115 690.339 593.858 687.35 593.563C684.36 593.267 681.566 591.952 679.442 589.841C677.318 587.73 675.995 584.953 675.698 581.982C675.4 579.011 676.148 576.029 677.812 573.544L695.839 591.461Z" fill="#47AA51"/>
<path d="M699.478 587.865L681.451 569.948C683.952 568.293 686.952 567.551 689.941 567.846C692.93 568.141 695.725 569.456 697.849 571.567C699.973 573.678 701.296 576.456 701.593 579.427C701.89 582.398 701.143 585.379 699.478 587.865Z" fill="#47AA51"/>
<path d="M699.479 587.865L699.437 587.936C698.5 589.306 697.311 590.488 695.932 591.419L695.861 591.461L677.813 573.535L677.855 573.468C678.791 572.098 679.98 570.916 681.359 569.985L681.431 569.939L699.479 587.865Z" fill="#1C9E07"/>
<path d="M697.827 571.568C696.622 570.367 695.19 569.414 693.613 568.764C692.035 568.115 690.345 567.782 688.637 567.784V569.822C690.624 569.823 692.574 570.361 694.277 571.379C695.98 572.397 697.372 573.856 698.304 575.6C699.236 577.344 699.674 579.308 699.569 581.28C699.464 583.252 698.822 585.159 697.71 586.796C696.925 587.947 695.927 588.939 694.768 589.719C692.661 591.13 690.125 591.769 687.596 591.527C685.067 591.284 682.701 590.174 680.905 588.388C679.108 586.602 677.992 584.251 677.749 581.737C677.505 579.223 678.149 576.703 679.569 574.609C679.961 574.032 680.407 573.494 680.901 573.001C682.959 570.965 685.743 569.82 688.646 569.814V567.776C686.938 567.775 685.247 568.109 683.67 568.758C682.092 569.407 680.659 570.359 679.452 571.56C678.861 572.143 678.331 572.782 677.867 573.468C676.175 575.954 675.406 578.948 675.694 581.936C675.981 584.924 677.306 587.719 679.442 589.842C681.577 591.964 684.389 593.281 687.396 593.567C690.402 593.852 693.414 593.088 695.915 591.406C697.296 590.479 698.485 589.298 699.42 587.927C701.106 585.44 701.868 582.448 701.578 579.464C701.287 576.479 699.961 573.688 697.827 571.568Z" fill="white"/>
<path d="M467.104 201.183L448.846 219.33L428.676 199.283L446.934 181.132C449.609 178.474 453.236 176.98 457.019 176.98C460.802 176.98 464.43 178.474 467.104 181.132C469.779 183.791 471.282 187.396 471.282 191.156C471.282 194.915 469.779 198.521 467.104 201.179V201.183Z" fill="#1C9E07"/>
<path d="M448.845 219.33L430.587 237.473C429.262 238.789 427.69 239.833 425.96 240.546C424.229 241.258 422.375 241.625 420.502 241.625C418.629 241.625 416.774 241.258 415.044 240.546C413.313 239.833 411.741 238.789 410.417 237.473C409.092 236.156 408.042 234.594 407.325 232.874C406.608 231.154 406.239 229.311 406.239 227.449C406.239 225.588 406.608 223.744 407.325 222.024C408.042 220.305 409.092 218.742 410.417 217.426L428.671 199.283L448.845 219.33Z" fill="#47AA51"/>
<path d="M428.676 199.287L410.422 217.43C409.097 218.746 408.047 220.309 407.33 222.029C406.613 223.748 406.244 225.592 406.244 227.453C406.244 229.315 406.613 231.158 407.33 232.878C408.047 234.598 409.097 236.161 410.422 237.477C411.746 238.793 413.318 239.837 415.049 240.55C416.779 241.262 418.634 241.629 420.507 241.629C422.38 241.629 424.234 241.262 425.965 240.55C427.695 239.837 429.267 238.793 430.592 237.477L448.85 219.334L428.676 199.287ZM429.138 236.04C426.834 238.247 423.751 239.466 420.551 239.437C417.352 239.408 414.292 238.131 412.03 235.883C409.767 233.634 408.483 230.593 408.454 227.413C408.424 224.233 409.651 221.169 411.871 218.879L428.68 202.173L445.946 219.33L429.138 236.04Z" fill="white"/>
<path d="M472.839 239.461C470.339 241.115 467.339 241.858 464.35 241.563C461.36 241.267 458.566 239.952 456.442 237.841C454.318 235.73 452.995 232.953 452.698 229.982C452.4 227.011 453.148 224.029 454.812 221.544L472.839 239.461Z" fill="#47AA51"/>
<path d="M476.478 235.865L458.451 217.948C460.952 216.293 463.952 215.551 466.941 215.846C469.93 216.141 472.725 217.456 474.849 219.567C476.973 221.678 478.296 224.456 478.593 227.427C478.89 230.398 478.143 233.379 476.478 235.865Z" fill="#47AA51"/>
<path d="M476.479 235.865L476.437 235.936C475.5 237.306 474.311 238.488 472.932 239.419L472.861 239.461L454.813 221.535L454.855 221.468C455.791 220.098 456.98 218.916 458.359 217.985L458.431 217.939L476.479 235.865Z" fill="#1C9E07"/>
<path d="M474.827 219.568C473.622 218.367 472.19 217.414 470.613 216.764C469.035 216.115 467.345 215.782 465.637 215.784V217.822C467.624 217.823 469.574 218.361 471.277 219.379C472.98 220.397 474.372 221.856 475.304 223.6C476.236 225.344 476.674 227.308 476.569 229.28C476.464 231.252 475.822 233.159 474.71 234.796C473.925 235.947 472.927 236.939 471.768 237.719C469.661 239.13 467.125 239.769 464.596 239.527C462.067 239.284 459.701 238.174 457.905 236.388C456.108 234.602 454.992 232.251 454.749 229.737C454.505 227.223 455.149 224.703 456.569 222.609C456.961 222.032 457.407 221.494 457.901 221.001C459.959 218.965 462.743 217.82 465.646 217.814V215.776C463.938 215.775 462.247 216.109 460.67 216.758C459.092 217.407 457.659 218.359 456.452 219.56C455.861 220.143 455.331 220.782 454.867 221.468C453.175 223.954 452.406 226.948 452.694 229.936C452.981 232.924 454.306 235.719 456.442 237.842C458.577 239.964 461.389 241.281 464.396 241.567C467.402 241.852 470.414 241.088 472.915 239.406C474.296 238.479 475.485 237.298 476.42 235.927C478.106 233.44 478.868 230.448 478.578 227.464C478.287 224.479 476.961 221.688 474.827 219.568Z" fill="white"/>
<path d="M603.104 732.183L584.846 750.33L564.676 730.283L582.934 712.132C585.609 709.474 589.236 707.98 593.019 707.98C596.802 707.98 600.43 709.474 603.104 712.132C605.779 714.791 607.282 718.396 607.282 722.156C607.282 725.915 605.779 729.521 603.104 732.179V732.183Z" fill="#47AA51"/>
<path d="M584.845 750.33L566.587 768.473C565.262 769.789 563.69 770.833 561.96 771.546C560.229 772.258 558.375 772.625 556.502 772.625C554.629 772.625 552.774 772.258 551.044 771.546C549.313 770.833 547.741 769.789 546.417 768.473C545.092 767.156 544.042 765.594 543.325 763.874C542.608 762.154 542.239 760.311 542.239 758.449C542.239 756.588 542.608 754.744 543.325 753.024C544.042 751.305 545.092 749.742 546.417 748.426L564.671 730.283L584.845 750.33Z" fill="#47AA51"/>
<path d="M564.676 730.287L546.422 748.43C545.097 749.746 544.047 751.309 543.33 753.029C542.613 754.748 542.244 756.592 542.244 758.453C542.244 760.315 542.613 762.158 543.33 763.878C544.047 765.598 545.097 767.161 546.422 768.477C547.746 769.793 549.318 770.837 551.049 771.55C552.779 772.262 554.634 772.629 556.507 772.629C558.38 772.629 560.234 772.262 561.965 771.55C563.695 770.837 565.267 769.793 566.592 768.477L584.85 750.334L564.676 730.287ZM565.138 767.04C562.834 769.247 559.751 770.466 556.551 770.437C553.352 770.408 550.292 769.131 548.03 766.883C545.767 764.634 544.483 761.593 544.454 758.413C544.424 755.233 545.651 752.169 547.871 749.879L564.68 733.173L581.946 750.33L565.138 767.04Z" fill="white"/>
<path d="M612.478 766.865L594.451 748.948C596.952 747.293 599.952 746.551 602.941 746.846C605.93 747.141 608.725 748.456 610.849 750.567C612.973 752.678 614.296 755.456 614.593 758.427C614.89 761.398 614.143 764.379 612.478 766.865Z" fill="#47AA51"/>
<path d="M610.827 750.568C609.622 749.367 608.19 748.414 606.613 747.764C605.035 747.115 603.345 746.782 601.637 746.784V748.822C603.624 748.823 605.574 749.361 607.277 750.379C608.98 751.397 610.372 752.856 611.304 754.6C612.236 756.344 612.674 758.308 612.569 760.28C612.464 762.252 611.822 764.159 610.71 765.796C609.925 766.947 608.927 767.939 607.768 768.719C605.661 770.13 603.125 770.769 600.596 770.527C598.067 770.284 595.701 769.174 593.905 767.388C592.108 765.602 590.992 763.251 590.749 760.737C590.505 758.223 591.149 755.703 592.569 753.609C592.961 753.032 593.407 752.494 593.901 752.001C595.959 749.965 598.743 748.82 601.646 748.814V746.776C599.938 746.775 598.247 747.109 596.67 747.758C595.092 748.407 593.659 749.359 592.452 750.56C591.861 751.143 591.331 751.782 590.867 752.468C589.175 754.954 588.406 757.948 588.694 760.936C588.981 763.924 590.306 766.719 592.442 768.842C594.577 770.964 597.389 772.281 600.396 772.567C603.402 772.852 606.414 772.088 608.915 770.406C610.296 769.479 611.485 768.298 612.42 766.927C614.106 764.44 614.868 761.448 614.578 758.464C614.287 755.479 612.961 752.688 610.827 750.568Z" fill="white"/>
<path d="M729.942 313.253L682.117 361.078C679.769 363.426 679.769 367.234 682.117 369.582L695.431 382.896C697.779 385.244 701.587 385.244 703.935 382.896L751.76 335.071C754.108 332.722 754.108 328.915 751.76 326.567L738.446 313.253C736.098 310.905 732.29 310.905 729.942 313.253Z" fill="#47AA51"/>
<path d="M665.81 377.387L661 382.197L682.818 404.015L687.628 399.205L665.81 377.387Z" fill="#47AA51"/>
<path d="M682.851 370.315L681.766 375.238L672.715 384.288L680.722 392.301L689.773 383.25L694.701 382.165L682.851 370.315Z" fill="#1C9E07"/>
<path d="M706.025 337.17L729.938 313.252C731.066 312.125 732.596 311.492 734.191 311.492C735.785 311.492 737.315 312.125 738.443 313.252L751.757 326.566C752.316 327.125 752.759 327.788 753.062 328.517C753.364 329.247 753.52 330.029 753.52 330.819C753.52 331.609 753.364 332.391 753.062 333.121C752.759 333.851 752.316 334.514 751.757 335.072L727.845 358.984L706.025 337.17Z" fill="#1C9E07"/>
<path d="M682.119 369.583L695.433 382.897C696.562 384.024 698.091 384.657 699.686 384.657C701.281 384.657 702.811 384.024 703.939 382.897L751.759 335.072C752.318 334.514 752.761 333.851 753.064 333.121C753.367 332.392 753.523 331.609 753.523 330.819C753.523 330.029 753.367 329.247 753.064 328.517C752.761 327.787 752.318 327.124 751.759 326.566L746.161 320.943L767.57 299.507C767.846 299.232 768 298.858 768 298.469C768 298.079 767.846 297.706 767.57 297.43C767.295 297.155 766.921 297 766.532 297C766.142 297 765.769 297.155 765.493 297.43L744.084 318.881L738.45 313.258C737.892 312.698 737.229 312.253 736.499 311.95C735.77 311.647 734.987 311.491 734.197 311.491C733.407 311.491 732.624 311.647 731.894 311.95C731.165 312.253 730.502 312.698 729.944 313.258L722.518 320.683L720.441 322.76L682.119 361.077C680.992 362.205 680.359 363.735 680.359 365.33C680.359 366.925 680.992 368.454 682.119 369.583ZM684.196 363.139L686.746 360.589L695.574 369.416L697.651 367.339L688.823 358.512L692.1 355.24L695.491 358.636L697.568 356.559L694.172 353.163L696.944 350.39L705.772 359.218L707.849 357.141L699.022 348.313L702.283 345.052L705.673 348.443L707.75 346.366L704.354 342.97L707.143 340.187L715.97 349.014L718.048 346.937L709.22 338.11L712.471 334.864L715.867 338.255L717.944 336.178L714.548 332.782L717.798 329.537L726.626 338.364L728.703 336.287L719.875 327.46L722.664 324.676L725.909 328.176L727.986 326.099L724.59 322.703L727.405 319.894L736.232 328.721L738.309 326.644L729.482 317.817L732.037 315.262C732.62 314.683 733.409 314.358 734.231 314.358C735.052 314.358 735.841 314.683 736.425 315.262L749.739 328.576C750.317 329.159 750.642 329.948 750.642 330.77C750.642 331.592 750.317 332.38 749.739 332.964L701.914 380.783C701.33 381.362 700.542 381.687 699.72 381.687C698.898 381.687 698.11 381.362 697.526 380.783L684.181 367.526C683.602 366.943 683.277 366.154 683.277 365.332C683.277 364.511 683.602 363.722 684.181 363.139H684.196Z" fill="white"/>
<defs>
<clipPath id="clip0_1_113">
<rect width="111" height="101" fill="white" transform="translate(619 97)"/>
</clipPath>
<clipPath id="clip1_1_113">
<rect width="111" height="101" fill="white" transform="translate(78 667)"/>
</clipPath>
<clipPath id="clip2_1_113">
<rect width="111" height="101" fill="white" transform="translate(461 284)"/>
</clipPath>
</defs>
</svg>
