<svg width="18" height="18" viewBox="0 0 18 18" fill="none" xmlns="http://www.w3.org/2000/svg">
<path d="M8.8008 9C10.8718 9 12.5508 7.32106 12.5508 5.25C12.5508 3.17893 10.8718 1.5 8.8008 1.5C6.72971 1.5 5.05078 3.17893 5.05078 5.25C5.05078 7.32106 6.72971 9 8.8008 9Z" stroke="#868686" stroke-width="2"/>
<path d="M12.5508 10.5H12.8148C13.3631 10.5002 13.8925 10.7006 14.3035 11.0635C14.7145 11.4264 14.9788 11.927 15.0468 12.471L15.34 14.814C15.3664 15.0251 15.3476 15.2393 15.2848 15.4426C15.2221 15.6458 15.1168 15.8334 14.9761 15.9928C14.8352 16.1523 14.6621 16.2799 14.4682 16.3674C14.2743 16.4548 14.0641 16.5001 13.8513 16.5H3.75033C3.53761 16.5001 3.32732 16.4548 3.13341 16.3674C2.93949 16.2799 2.7664 16.1523 2.6256 15.9928C2.48481 15.8334 2.37954 15.6458 2.31678 15.4426C2.25402 15.2393 2.2352 15.0251 2.26158 14.814L2.55408 12.471C2.6221 11.9267 2.88664 11.4259 3.29795 11.0629C3.70926 10.7 4.239 10.4998 4.78758 10.5H5.05083" stroke="#868686" stroke-width="2" stroke-linecap="round" stroke-linejoin="round"/>
</svg>
