<svg width="300" height="44" viewBox="0 0 300 44" fill="none" xmlns="http://www.w3.org/2000/svg">
<rect width="300" height="44" rx="20" fill="white"/>
<g clip-path="url(#clip0_1_183)">
<path d="M27.7344 22C30.4958 22 32.7344 19.7614 32.7344 17C32.7344 14.2386 30.4958 12 27.7344 12C24.973 12 22.7344 14.2386 22.7344 17C22.7344 19.7614 24.973 22 27.7344 22Z" stroke="#868686" stroke-width="2"/>
<path d="M32.7344 24H33.0864C33.8175 24.0002 34.5234 24.2674 35.0714 24.7513C35.6194 25.2352 35.9718 25.9026 36.0624 26.628L36.4534 29.752C36.4886 30.0334 36.4635 30.3191 36.3798 30.5901C36.2961 30.8611 36.1558 31.1112 35.9681 31.3238C35.7803 31.5364 35.5495 31.7066 35.291 31.8232C35.0324 31.9398 34.7521 32.0001 34.4684 32H21.0004C20.7168 32.0001 20.4364 31.9398 20.1779 31.8232C19.9193 31.7066 19.6885 31.5364 19.5008 31.3238C19.3131 31.1112 19.1727 30.8611 19.089 30.5901C19.0054 30.3191 18.9803 30.0334 19.0154 29.752L19.4054 26.628C19.4961 25.9022 19.8489 25.2346 20.3973 24.7506C20.9457 24.2667 21.652 23.9997 22.3834 24H22.7344" stroke="#868686" stroke-width="2" stroke-linecap="round" stroke-linejoin="round"/>
</g>
<path d="M46.8906 24.3906L52.4922 15.625H54V27H52.4922V18.2266L46.8906 27H45.3906V15.625H46.8906V24.3906ZM61.3828 25.0781L64.2578 18.5469H65.6484L61.8828 27H60.8828L57.1328 18.5469H58.5234L61.3828 25.0781ZM58.1016 18.5469V27H56.6562V18.5469H58.1016ZM64.6172 27V18.5469H66.0703V27H64.6172ZM70.1094 22.9688H71.6719L69.2266 27H67.6641L70.1094 22.9688ZM71.3203 18.5469H74.8516V27H73.4062V19.7188H71.3203C70.9089 19.7188 70.5729 19.7891 70.3125 19.9297C70.0521 20.0651 69.862 20.2422 69.7422 20.4609C69.6224 20.6797 69.5625 20.9062 69.5625 21.1406C69.5625 21.3698 69.6172 21.5911 69.7266 21.8047C69.8359 22.013 70.0078 22.1849 70.2422 22.3203C70.4766 22.4557 70.7786 22.5234 71.1484 22.5234H73.7969V23.7109H71.1484C70.6641 23.7109 70.2344 23.6458 69.8594 23.5156C69.4844 23.3854 69.1667 23.2057 68.9062 22.9766C68.6458 22.7422 68.4479 22.4688 68.3125 22.1562C68.1771 21.8385 68.1094 21.4948 68.1094 21.125C68.1094 20.7552 68.1797 20.4141 68.3203 20.1016C68.4661 19.7891 68.6745 19.5156 68.9453 19.2812C69.2214 19.0469 69.5573 18.8672 69.9531 18.7422C70.3542 18.612 70.8099 18.5469 71.3203 18.5469Z" fill="#868686"/>
<defs>
<clipPath id="clip0_1_183">
<rect width="24" height="24" fill="white" transform="matrix(-1 0 0 1 40 10)"/>
</clipPath>
</defs>
</svg>
